<?xml version="1.0" encoding="utf-8"?>
<svg xmlns="http://www.w3.org/2000/svg" xmlns:xlink="http://www.w3.org/1999/xlink" style="margin: auto; background: none; display: block; shape-rendering: auto;" width="200px" height="200px" viewBox="0 0 100 100" preserveAspectRatio="xMidYMid">
    <g transform="translate(50 50)">
        <g>
            <animateTransform attributeName="transform" type="rotate" values="0;40" keyTimes="0;1" dur="0.2s" repeatCount="indefinite"></animateTransform>
            <path fill="#333" d="M29.491524206117255 -5.5 L37.491524206117255 -5.5 L37.491524206117255 5.5 L29.491524206117255 5.5 A30 30 0 0 1 26.12715009048092 14.743541913308446 L26.12715009048092 14.743541913308446 L32.25550563543275 19.885842790800762 L25.18484192888081 28.312331665109514 L19.056486383928988 23.1700307876172 A30 30 0 0 1 10.537592076579571 28.08841670916336 L10.537592076579571 28.08841670916336 L11.926777497915015 35.96687873326103 L1.0938922147807286 37.87700868759726 L-0.2952932065547146 29.998546663499596 A30 30 0 0 1 -9.98262238224421 28.290409158821245 L-9.98262238224421 28.290409158821245 L-13.98262238224421 35.218612389096755 L-23.50890182387304 29.71861238909675 L-19.50890182387304 22.79040915882124 A30 30 0 0 1 -25.831856883926196 15.255004750191159 L-25.831856883926196 15.255004750191159 L-33.349397850213464 17.99116589679651 L-37.111619426795826 7.654547068151507 L-29.59407846050856 4.918385921546156 A30 30 0 0 1 -29.59407846050856 -4.9183859215461485 L-29.59407846050856 -4.9183859215461485 L-37.111619426795826 -7.654547068151498 L-33.349397850213464 -17.991165896796502 L-25.8318568839262 -15.255004750191151 A30 30 0 0 1 -19.508901823873053 -22.79040915882123 L-19.508901823873053 -22.79040915882123 L-23.508901823873057 -29.718612389096737 L-13.982622382244227 -35.21861238909675 L-9.982622382244223 -28.29040915882124 A30 30 0 0 1 -0.29529320655473523 -29.998546663499596 L-0.29529320655473523 -29.998546663499596 L1.0938922147807042 -37.87700868759726 L11.926777497915003 -35.96687873326103 L10.537592076579564 -28.08841670916336 A30 30 0 0 1 19.056486383928977 -23.170030787617215 L19.056486383928977 -23.170030787617215 L25.1848419288808 -28.312331665109532 L32.25550563543274 -19.885842790800766 L26.127150090480917 -14.743541913308448 A30 30 0 0 1 29.491524206117255 -5.500000000000013 M0 -20A20 20 0 1 0 0 20 A20 20 0 1 0 0 -20"></path>
        </g>
    </g>
</svg>
